<svg viewBox="0 0 120 120" role="img" aria-label="하이버블 아이콘" xmlns="http://www.w3.org/2000/svg">
  <defs>
    <linearGradient id="bg" x1="18" y1="12" x2="102" y2="110" gradientUnits="userSpaceOnUse">
      <stop stop-color="#FFE066"/>
      <stop offset="0.55" stop-color="#FFB703"/>
      <stop offset="1" stop-color="#FF8A00"/>
    </linearGradient>
    <linearGradient id="pin" x1="41" y1="24" x2="78" y2="86" gradientUnits="userSpaceOnUse">
      <stop stop-color="#FFFFFF"/>
      <stop offset="1" stop-color="#FFF7E5"/>
    </linearGradient>
  </defs>
  <rect x="8" y="8" width="104" height="104" rx="28" fill="url(#bg)"/>
  <path d="M25 37H95M25 56H95M25 75H95M41 24V91M62 24V91M82 24V91" stroke="white" stroke-opacity="0.28" stroke-width="2.4" stroke-linecap="round"/>
  <g>
    <path d="M60 26C46.2 26 35 37.2 35 51C35 69.2 55 84.4 59.1 91.6C59.5 92.3 60.5 92.3 60.9 91.6C65 84.4 85 69.2 85 51C85 37.2 73.8 26 60 26Z" fill="url(#pin)"/>
  </g>
  <g fill="#FFFFFF" stroke="#111827" stroke-opacity="0.1" stroke-width="1.5">

    <circle cx="82" cy="28" r="7.5"/>
    <circle cx="94" cy="38" r="5"/>
    <circle cx="31" cy="39" r="4.5"/>
    <circle cx="87" cy="68" r="4"/>
  </g>
</svg>
